<?xml version="1.0" encoding="UTF-8" standalone="no"?>
<svg
   version="1.1"
   x="0px"
   y="0px"
   viewBox="0 0 24 30"
   enable-background="new 0 0 24 24"
   xml:space="preserve"
   id="svg14"
   sodipodi:docname="noun-speaker-1307533.svg"
   inkscape:version="1.2.1 (9c6d41e410, 2022-07-14)"
   xmlns:inkscape="http://www.inkscape.org/namespaces/inkscape"
   xmlns:sodipodi="http://sodipodi.sourceforge.net/DTD/sodipodi-0.dtd"
   xmlns="http://www.w3.org/2000/svg"
   xmlns:svg="http://www.w3.org/2000/svg"><defs
     id="defs18" /><sodipodi:namedview
     id="namedview16"
     pagecolor="#ffffff"
     bordercolor="#666666"
     borderopacity="1.0"
     inkscape:showpageshadow="2"
     inkscape:pageopacity="0.0"
     inkscape:pagecheckerboard="0"
     inkscape:deskcolor="#d1d1d1"
     showgrid="false"
     inkscape:zoom="18.950462"
     inkscape:cx="-0.36938413"
     inkscape:cy="13.640828"
     inkscape:window-width="1920"
     inkscape:window-height="991"
     inkscape:window-x="-9"
     inkscape:window-y="-9"
     inkscape:window-maximized="1"
     inkscape:current-layer="svg14" /><g
     id="g8"
     transform="matrix(0.64763803,0,0,0.64763803,4.2283436,7.228131)"
     style="stroke-width:1.54407;stroke:none;stroke-opacity:1;fill:#000000;fill-opacity:1"
     inkscape:export-filename="speaker.tiff"
     inkscape:export-xdpi="3118.2883"
     inkscape:export-ydpi="3118.2883"><path
       d="m 19.362,20.022 c 0.076,0 0.152,-0.021 0.221,-0.066 2.692,-1.776 4.301,-4.76 4.301,-7.98 0,-3.219 -1.608,-6.202 -4.301,-7.979 -0.185,-0.121 -0.433,-0.07 -0.555,0.113 -0.121,0.185 -0.07,0.433 0.113,0.555 2.469,1.628 3.941,4.361 3.941,7.311 0,2.951 -1.473,5.685 -3.941,7.312 -0.184,0.122 -0.234,0.37 -0.113,0.555 0.077,0.115 0.204,0.179 0.334,0.179 z"
       id="path2"
       style="stroke-width:1.54407;stroke:none;stroke-opacity:1;fill:#000000;fill-opacity:1" /><path
       d="m 16.82,16.599 c -0.194,0.104 -0.267,0.348 -0.161,0.542 0.072,0.134 0.21,0.21 0.352,0.21 0.064,0 0.13,-0.016 0.19,-0.049 1.961,-1.059 3.18,-3.1 3.18,-5.327 0,-2.226 -1.219,-4.267 -3.18,-5.325 -0.194,-0.106 -0.437,-0.034 -0.542,0.161 -0.105,0.194 -0.033,0.438 0.161,0.542 1.703,0.92 2.76,2.69 2.76,4.622 0,1.932 -1.057,3.704 -2.76,4.624 z"
       id="path4"
       style="stroke-width:1.54407;stroke:none;stroke-opacity:1;fill:#000000;fill-opacity:1" /><path
       d="m 15.759,0.835 c 0,-0.31 -0.172,-0.589 -0.45,-0.729 -0.275,-0.139 -0.603,-0.111 -0.873,0.09 L 5.4,7.88 H 2.634 c -0.025,0 -2.518,0.176 -2.518,4.092 0,0.001 0.001,0.003 0.001,0.004 0,10e-4 -0.001,0.003 -0.001,0.004 0,3.915 2.492,4.091 2.518,4.091 H 5.4 l 9.059,7.751 c 0.145,0.105 0.314,0.159 0.483,0.159 0.126,0 0.251,-0.029 0.366,-0.089 0.278,-0.139 0.451,-0.418 0.451,-0.729 V 11.98 c 0,-0.001 -0.001,-0.003 -0.001,-0.004 0,-0.001 0.001,-0.003 0.001,-0.004 z M 0.917,11.98 c 0,-0.001 -0.001,-0.003 -0.001,-0.004 0,-0.001 0.001,-0.003 0.001,-0.004 0,-3.079 1.674,-3.285 1.717,-3.291 H 5.147 V 15.27 L 2.662,15.272 C 2.59,15.264 0.917,15.059 0.917,11.98 Z M 14.955,23.195 5.948,15.487 V 8.465 l 9.011,-7.63 v 11.137 c 0,0.001 0.001,0.003 0.001,0.004 0,10e-4 -0.001,0.003 -0.001,0.004 z"
       id="path6"
       style="stroke-width:1.54407;stroke:none;stroke-opacity:1;fill:#000000;fill-opacity:1" /></g><text
     x="0"
     y="39"
     fill="#000000"
     font-size="5px"
     font-weight="bold"
     font-family="'Helvetica Neue', Helvetica, Arial-Unicode, Arial, Sans-serif"
     id="text10">Created by Atif Arshad</text><text
     x="0"
     y="44"
     fill="#000000"
     font-size="5px"
     font-weight="bold"
     font-family="'Helvetica Neue', Helvetica, Arial-Unicode, Arial, Sans-serif"
     id="text12">from the Noun Project</text></svg>
