<svg xmlns:dc="http://purl.org/dc/elements/1.1/" xmlns:cc="http://creativecommons.org/ns#" xmlns:rdf="http://www.w3.org/1999/02/22-rdf-syntax-ns#" xmlns:svg="http://www.w3.org/2000/svg" xmlns="http://www.w3.org/2000/svg" xmlns:sodipodi="http://sodipodi.sourceforge.net/DTD/sodipodi-0.dtd" xmlns:inkscape="http://www.inkscape.org/namespaces/inkscape" version="1.1" x="0px" y="0px" viewBox="0 0 100 125"><g transform="translate(0,-952.36218)"><path style="text-indent:0;text-transform:none;direction:ltr;block-progression:tb;baseline-shift:baseline;color:#000000;enable-background:accumulate;" d="m 60.703694,959.36733 c -7.5069,0 -13.5532,6.52904 -13.5532,14.46719 0,2.81967 0.7814,5.44104 2.0822,7.66094 a 1.0001,1.0001 0 1 0 1.7254,-1.01125 c -1.1306,-1.92934 -1.8076,-4.19892 -1.8076,-6.64969 0,-6.92887 5.2078,-12.46719 11.5532,-12.46719 6.3453,0 11.5234,5.53568 11.5234,12.46719 0,2.45882 -0.6495,4.72515 -1.7778,6.64938 a 1.0001,1.0001 0 1 0 1.725,1.01187 c 1.3059,-2.22727 2.0528,-4.84919 2.0528,-7.66125 0,-7.93551 -6.0166,-14.46719 -13.5234,-14.46719 z" fill="#000000" fill-opacity="1" fill-rule="evenodd" stroke="none" marker="none" visibility="visible" display="inline" overflow="visible"/><path style="text-indent:0;text-transform:none;direction:ltr;block-progression:tb;baseline-shift:baseline;color:#000000;enable-background:accumulate;" d="m 60.675494,967.79452 c -3.4091,0 -6.3437,2.41974 -6.3437,5.5625 l 0,22.53125 c -0.064,-0.0515 -0.1218,-0.10793 -0.1875,-0.15625 -1.2936,-0.9509 -2.9325,-1.33273 -4.5312,-1.3125 -1.5989,0.0202 -3.1848,0.42817 -4.4376,1.28125 -1.2136,0.82649 -2.1149,2.17969 -2.0937,3.78125 -1.2299,-1.01889 -2.7675,-1.48652 -4.2813,-1.5 -1.5768,-0.014 -3.1594,0.44864 -4.3437,1.46875 -1.0028,0.86383 -1.6972,2.16503 -1.7813,3.68753 -0.2388,-0.2133 -0.4568,-0.4279 -0.7187,-0.5938 -1.4437,-0.9147 -3.1662,-1.0754 -4.7187,-0.6562 -3.1048,0.8382 -5.694,4.0289 -5.1563,8.1874 2.0628,16.0668 3.8423,22.8406 6.5937,34.5313 0.1099,0.4256 0.5293,0.7502 0.9688,0.75 8.8701,-0.061 16.5136,-0.1161 25.375,-0.1875 0.01,10e-5 0.021,10e-5 0.031,0 5.0501,-0.1555 10.3333,-4.4552 14.625,-11.9063 4.2918,-7.4511 7.5806,-18.17 8.3126,-31.5624 0.015,-0.2744 -0.09,-0.553 -0.2813,-0.75 -1.0678,-1.0498 -2.0979,-1.72556 -3.125,-2.00003 -0.321,-0.0858 -0.6222,-0.12243 -0.9375,-0.125 -0.6935,-0.006 -1.372,0.17044 -1.9375,0.5 -1.6451,0.95873 -2.5865,2.87263 -3.4063,4.87503 -0.4937,1.2062 -0.9275,2.4214 -1.3124,3.5937 -0.089,-9.51714 0.031,-21.3986 0.031,-34.43748 0,-3.14276 -2.9429,-5.5625 -6.3438,-5.5625 z m 0,2 c 2.4739,0 4.3438,1.70213 4.3438,3.5625 0,15.02478 -0.1631,28.64448 0.031,38.74998 0.1442,4.0003 1.7437,2.0098 3.0938,-1.4688 0.6076,-1.7059 1.2387,-3.8277 2,-5.6874 0.7613,-1.8598 1.7011,-3.373 2.5625,-3.875 0.4307,-0.251 0.8191,-0.3361 1.375,-0.1875 0.4883,0.1304 1.1093,0.4975 1.875,1.1875 -0.7672,12.9064 -3.9505,23.1571 -8,30.1874 -4.0936,7.1071 -9.0635,10.7789 -12.9687,10.9063 -8.577,0.069 -16.0466,0.1287 -24.5626,0.1875 -2.6474,-11.2158 -4.3693,-17.9089 -6.375,-33.5313 -0.4185,-3.2334 1.5577,-5.4165 3.7188,-5.9999 1.0806,-0.2918 2.157,-0.1873 3.0938,0.4062 0.9369,0.5936 1.7697,1.7187 2.1874,3.625 l 0,0.031 c 0.01,0.021 0.02,0.042 0.031,0.062 l 0.125,1.5 c -0.046,0.5749 0.5011,1.1225 1.076,1.0769 0.575,-0.046 1.0289,-0.6728 0.8927,-1.2332 l -0.125,-1.625 c 0,-0.074 -0.013,-0.1473 -0.031,-0.2187 l 0,-0.031 c 0,-0.01 0,-0.021 0,-0.031 l -0.3125,-3.5937 c -0.1167,-1.318 0.316,-2.1695 1.0625,-2.8125 0.7468,-0.6433 1.8532,-1.01024 3,-1.00003 1.1469,0.0102 2.285,0.38183 3.125,1.12503 0.735,0.6502 1.272,1.5717 1.4062,2.9062 0.01,0.08 0.026,0.1665 0.031,0.25 0.01,0.1457 0.024,0.2918 0.031,0.4375 0,0.031 0,0.062 0,0.094 0.041,0.8316 0.084,1.6667 0.125,2.5 -0.059,0.576 0.4803,1.1373 1.0582,1.1006 0.5779,-0.037 1.0422,-0.6618 0.9105,-1.2256 -0.038,-0.7741 -0.087,-1.5395 -0.125,-2.3125 0.01,-0.073 0.01,-0.1461 0,-0.2187 0.011,-0.021 0.022,-0.041 0.031,-0.062 0,-0.2691 -0.035,-0.5263 -0.063,-0.7813 0,-0.031 0,-0.063 0,-0.094 -0.069,-1.389 -0.1449,-2.7638 -0.2187,-4.15623 -0.046,-0.92674 0.3799,-1.6162 1.2187,-2.1875 0.84,-0.5719 2.0954,-0.9217 3.3438,-0.9375 1.2484,-0.0158 2.4726,0.32016 3.3125,0.9375 0.8399,0.61735 1.364,1.43394 1.3437,2.84373 -0.01,0.105 0,0.2109 0.031,0.3125 l 0,1.8438 c -0.01,0.5283 0.4716,1.0142 1,1.0142 0.5284,0 1.0075,-0.4859 1,-1.0142 l 0,-29.00003 c 0,-1.86037 1.8585,-3.5625 4.3437,-3.5625 z" fill="#000000" fill-opacity="1" fill-rule="evenodd" stroke="none" marker="none" visibility="visible" display="inline" overflow="visible"/></g><text x="0" y="115" fill="#000000" font-size="5px" font-weight="bold" font-family="'Helvetica Neue', Helvetica, Arial-Unicode, Arial, Sans-serif">Created by andriwidodo</text><text x="0" y="120" fill="#000000" font-size="5px" font-weight="bold" font-family="'Helvetica Neue', Helvetica, Arial-Unicode, Arial, Sans-serif">from the Noun Project</text></svg>