<?xml version="1.0" encoding="UTF-8" standalone="no"?>
<svg
   data-name="Layer 1"
   viewBox="0 0 80 100"
   x="0px"
   y="0px"
   version="1.1"
   id="svg10"
   sodipodi:docname="noun-magnifier-1152421.svg"
   inkscape:version="1.2.1 (9c6d41e410, 2022-07-14)"
   xmlns:inkscape="http://www.inkscape.org/namespaces/inkscape"
   xmlns:sodipodi="http://sodipodi.sourceforge.net/DTD/sodipodi-0.dtd"
   xmlns="http://www.w3.org/2000/svg"
   xmlns:svg="http://www.w3.org/2000/svg">
  <defs
     id="defs14" />
  <sodipodi:namedview
     id="namedview12"
     pagecolor="#ffffff"
     bordercolor="#666666"
     borderopacity="1.0"
     inkscape:showpageshadow="2"
     inkscape:pageopacity="0.0"
     inkscape:pagecheckerboard="0"
     inkscape:deskcolor="#d1d1d1"
     showgrid="false"
     inkscape:zoom="5.6851385"
     inkscape:cx="11.609216"
     inkscape:cy="40.36841"
     inkscape:window-width="1920"
     inkscape:window-height="991"
     inkscape:window-x="-9"
     inkscape:window-y="-9"
     inkscape:window-maximized="1"
     inkscape:current-layer="svg10" />
  <title
     id="title2">01_BO_search</title>
  <path
     d="M49.36,9.58A20.73,20.73,0,0,0,33.91,44.17l-3.41,3.41a5.59,5.59,0,0,0-7,.72L11.36,60.45a5.58,5.58,0,0,0,7.9,7.9L31.4,56.2A5.56,5.56,0,0,0,31.95,49l3.37-3.37a20.75,20.75,0,1,0,14-36ZM30,54.79,17.84,66.94a3.58,3.58,0,0,1-5.07-5.07L24.92,49.72A3.58,3.58,0,0,1,30,54.79Zm19.37-5.67A18.76,18.76,0,1,1,68.13,30.35,18.79,18.79,0,0,1,49.36,49.11Z"
     id="path4"
     inkscape:export-filename="magnifier.tiff"
     inkscape:export-xdpi="794.47498"
     inkscape:export-ydpi="794.47498" />
  <text
     x="0"
     y="107"
     fill="#000000"
     font-size="5px"
     font-weight="bold"
     font-family="'Helvetica Neue', Helvetica, Arial-Unicode, Arial, Sans-serif"
     id="text6">Created by Weltenraser</text>
  <text
     x="0"
     y="112"
     fill="#000000"
     font-size="5px"
     font-weight="bold"
     font-family="'Helvetica Neue', Helvetica, Arial-Unicode, Arial, Sans-serif"
     id="text8">from the Noun Project</text>
</svg>
