<svg xmlns="http://www.w3.org/2000/svg" viewBox="0 0 100 125" x="0px" y="0px"><title>Creator Icon_14</title><g data-name="Layer 2"><path d="M56.65,16.89a2.8,2.8,0,0,0-3,.29L31,34.57a2.78,2.78,0,0,0-.51.53A12.17,12.17,0,0,0,18.72,47.24v5A12.17,12.17,0,0,0,30.1,64.37a2.8,2.8,0,0,0,.9,1.21L53.7,82.82a2.81,2.81,0,0,0,4.52-2.24V19.42A2.8,2.8,0,0,0,56.65,16.89ZM20.72,52.24v-5a10.18,10.18,0,0,1,9.17-10.12V62.36A10.18,10.18,0,0,1,20.72,52.24Zm11.17,11.1V36.8a.82.82,0,0,1,.32-.65L49.25,23.1V76.94L32.2,64A.82.82,0,0,1,31.88,63.34ZM56.22,80.58a.81.81,0,0,1-1.31.65l-3.65-2.78V21.57l3.65-2.8a.78.78,0,0,1,.49-.17.85.85,0,0,1,.37.09.79.79,0,0,1,.45.73Z"/><path d="M61.72,40.76a1,1,0,0,0,0,2,7.24,7.24,0,0,1,0,14.48,1,1,0,0,0,0,2,9.24,9.24,0,0,0,0-18.48Z"/><path d="M73.08,35.22A1,1,0,0,0,72,36.92a15.41,15.41,0,0,1-2.14,27.27A1,1,0,1,0,70.66,66a17.41,17.41,0,0,0,2.42-30.81Z"/></g><text x="0" y="115" fill="#000000" font-size="5px" font-weight="bold" font-family="'Helvetica Neue', Helvetica, Arial-Unicode, Arial, Sans-serif">Created by sasicreatives</text><text x="0" y="120" fill="#000000" font-size="5px" font-weight="bold" font-family="'Helvetica Neue', Helvetica, Arial-Unicode, Arial, Sans-serif">from the Noun Project</text></svg>